<svg width="18" height="24" viewBox="0 0 18 24" fill="none" xmlns="http://www.w3.org/2000/svg">
<path d="M17.25 8.99999C17.2508 7.60967 16.9003 6.2417 16.2309 5.02313C15.5616 3.80456 14.5951 2.77492 13.4213 2.02983C12.2475 1.28475 10.9044 0.848391 9.51683 0.761293C8.12925 0.674195 6.74217 0.939181 5.48441 1.53164C4.22665 2.1241 3.13901 3.02481 2.32253 4.15011C1.50604 5.27542 0.98718 6.58882 0.814146 7.96832C0.641112 9.34782 0.819514 10.7487 1.33278 12.0408C1.84605 13.3329 2.67753 14.4743 3.75 15.359V22.5C3.74991 22.6279 3.78253 22.7537 3.84477 22.8654C3.907 22.9772 3.99678 23.0712 4.10558 23.1384C4.21437 23.2057 4.33856 23.244 4.46634 23.2498C4.59412 23.2555 4.72124 23.2285 4.83563 23.1712L9 21.0937L13.1653 23.1759C13.2697 23.2259 13.3842 23.2512 13.5 23.25C13.6989 23.25 13.8897 23.171 14.0303 23.0303C14.171 22.8897 14.25 22.6989 14.25 22.5V15.359C15.1884 14.5862 15.944 13.6152 16.4627 12.5157C16.9814 11.4163 17.2503 10.2156 17.25 8.99999ZM2.25 8.99999C2.25 7.66496 2.64588 6.35992 3.38758 5.24989C4.12928 4.13985 5.18349 3.27469 6.41689 2.7638C7.65029 2.25291 9.00749 2.11923 10.3169 2.37969C11.6262 2.64014 12.829 3.28301 13.773 4.22702C14.717 5.17102 15.3599 6.37375 15.6203 7.68313C15.8808 8.9925 15.7471 10.3497 15.2362 11.5831C14.7253 12.8165 13.8601 13.8707 12.7501 14.6124C11.6401 15.3541 10.335 15.75 9 15.75C7.2104 15.748 5.49466 15.0362 4.22922 13.7708C2.96378 12.5053 2.25199 10.7896 2.25 8.99999ZM3.75 8.99999C3.75 7.96163 4.05791 6.9466 4.63479 6.08324C5.21166 5.21988 6.0316 4.54698 6.99091 4.14962C7.95022 3.75226 9.00583 3.64829 10.0242 3.85086C11.0426 4.05344 11.9781 4.55345 12.7123 5.28767C13.4465 6.0219 13.9466 6.95736 14.1491 7.97576C14.3517 8.99416 14.2477 10.0498 13.8504 11.0091C13.453 11.9684 12.7801 12.7883 11.9167 13.3652C11.0534 13.9421 10.0384 14.25 9 14.25C7.60807 14.2485 6.27358 13.6949 5.28934 12.7107C4.30509 11.7264 3.75149 10.3919 3.75 8.99999Z" fill="#F0C105"/>
</svg>
