<svg width="56" height="56" viewBox="0 0 56 56" fill="none" xmlns="http://www.w3.org/2000/svg">
<rect width="56" height="56" rx="16" fill="#102A56"/>
<path d="M30.0546 37.76C30.0546 38.4427 29.8093 39.0187 29.3186 39.488C28.828 39.936 28.22 40.16 27.4946 40.16C26.7693 40.16 26.1613 39.936 25.6706 39.488C25.18 39.0187 24.9346 38.4427 24.9346 37.76C24.9346 37.0347 25.18 36.448 25.6706 36C26.1613 35.5307 26.7693 35.296 27.4946 35.296C28.22 35.296 28.828 35.5307 29.3186 36C29.8093 36.448 30.0546 37.0347 30.0546 37.76ZM24.0386 22.944H20.9666C21.0093 21.728 21.34 20.6507 21.9586 19.712C22.5986 18.7733 23.4413 18.0373 24.4866 17.504C25.5533 16.9707 26.7586 16.704 28.1026 16.704C29.4893 16.704 30.7053 16.96 31.7506 17.472C32.796 17.9627 33.6066 18.6453 34.1826 19.52C34.7586 20.3947 35.0466 21.3867 35.0466 22.496C35.0466 23.4773 34.7906 24.3627 34.2786 25.152C33.7666 25.92 33.0733 26.6773 32.1986 27.424L30.3106 28.96C29.7986 29.408 29.404 29.8347 29.1266 30.24C28.8493 30.6453 28.6786 31.1147 28.6146 31.648C28.5506 32.16 28.5613 32.8427 28.6466 33.696H26.4706C26.2573 32.7147 26.1293 31.8827 26.0866 31.2C26.044 30.5173 26.14 29.8987 26.3746 29.344C26.6306 28.7893 27.0573 28.2453 27.6546 27.712L29.5746 26.016C30.1933 25.4827 30.6626 24.9813 30.9826 24.512C31.324 24.0213 31.4946 23.4453 31.4946 22.784C31.4946 21.8667 31.164 21.1093 30.5026 20.512C29.8626 19.8933 28.956 19.584 27.7826 19.584C26.716 19.584 25.8306 19.904 25.1266 20.544C24.444 21.1627 24.0813 21.9627 24.0386 22.944Z" fill="white"/>
</svg>
