<svg width="56" height="56" viewBox="0 0 56 56" fill="none" xmlns="http://www.w3.org/2000/svg">
<rect width="56" height="56" rx="16" fill="#102A56"/>
<path d="M37.0958 33.408C37.0958 35.4987 36.3811 37.12 34.9518 38.272C33.5438 39.424 31.6451 40 29.2558 40H20.8398V17.024H28.8078C31.1331 17.024 32.9464 17.5467 34.2478 18.592C35.5704 19.616 36.2318 21.0987 36.2318 23.04C36.2318 24.128 35.9224 25.1093 35.3038 25.984C34.6851 26.8587 33.8211 27.5413 32.7118 28.032C34.1411 28.4373 35.2291 29.1093 35.9757 30.048C36.7224 30.9653 37.0958 32.0853 37.0958 33.408ZM28.5838 19.84H24.0718V26.752H28.5838C29.9704 26.752 31.0264 26.4427 31.7518 25.824C32.4984 25.2053 32.8718 24.3627 32.8718 23.296C32.8718 22.2293 32.4984 21.3867 31.7518 20.768C31.0264 20.1493 29.9704 19.84 28.5838 19.84ZM29.0318 29.568H24.0718V37.184H29.0318C30.5251 37.184 31.6771 36.8427 32.4878 36.16C33.3198 35.4773 33.7358 34.528 33.7358 33.312C33.7358 32.1387 33.3198 31.2213 32.4878 30.56C31.6771 29.8987 30.5251 29.568 29.0318 29.568Z" fill="white"/>
</svg>
