<svg width="35" height="35" viewBox="0 0 35 35" fill="none" xmlns="http://www.w3.org/2000/svg">
<g clip-path="url(#clip0_38223_15768)">
<path fill-rule="evenodd" clip-rule="evenodd" d="M15.9482 6.79801C14.8502 6.94706 13.7556 7.27124 12.702 7.78512C11.6484 8.299 10.719 8.96196 9.92553 9.73546C9.4665 10.1829 8.73163 10.1736 8.28416 9.71453C7.8367 9.25549 7.84606 8.52063 8.30509 8.07316C9.27342 7.12922 10.4057 6.32226 11.6843 5.69864C12.9629 5.07501 14.2959 4.67958 15.6359 4.49767C16.2712 4.41144 16.856 4.85649 16.9422 5.4917C17.0285 6.12692 16.5834 6.71178 15.9482 6.79801ZM26.981 12.7018C26.7 12.1256 26.9392 11.4307 27.5154 11.1497C28.0916 10.8687 28.7865 11.108 29.0675 11.6841C32.2148 18.1372 29.5351 25.9199 23.082 29.0673C16.6289 32.2147 8.8462 29.5349 5.69882 23.0818C5.41781 22.5056 5.65708 21.8107 6.23324 21.5297C6.80941 21.2487 7.50429 21.488 7.78531 22.0641C10.3706 27.3648 16.7636 29.5661 22.0643 26.9808C27.365 24.3955 29.5663 18.0025 26.981 12.7018ZM20.632 6.56876C20.8336 5.98095 21.1183 5.52041 21.4704 5.18496C21.9248 4.75205 22.4682 4.55067 23.0164 4.54094C24.0894 4.52195 25.1266 5.2301 25.6235 6.21171L25.6265 6.21787C26.3251 7.65004 26.0881 9.32132 25.6304 10.6233C25.3986 11.2828 25.1015 11.8731 24.8107 12.327C24.6655 12.5538 24.5178 12.7527 24.3757 12.9115C24.2423 13.0608 24.0836 13.2092 23.9117 13.2931C23.7398 13.3769 23.5252 13.4106 23.3254 13.4238C23.1127 13.438 22.8651 13.4319 22.597 13.4067C22.0603 13.3565 21.4123 13.227 20.7498 13.0037C19.4421 12.5628 17.9791 11.7206 17.2806 10.2885L17.2776 10.2823C16.81 9.28638 16.8905 8.03311 17.5662 7.19919C17.9113 6.77322 18.4045 6.46903 19.0254 6.37748C19.5065 6.30652 20.0447 6.3657 20.632 6.56876ZM22.4234 16.5488C22.2975 15.79 22.8105 15.0727 23.5694 14.9467C24.3282 14.8207 25.0456 15.3337 25.1715 16.0926C25.7285 19.4473 24.0586 22.9087 20.8431 24.477C17.6277 26.0453 13.8719 25.2301 11.5713 22.7259C11.0509 22.1594 11.0882 21.2783 11.6547 20.7579C12.2212 20.2374 13.1023 20.2748 13.6227 20.8412C15.1125 22.4629 17.5444 22.9865 19.622 21.9732C21.6995 20.9599 22.7841 18.7212 22.4234 16.5488ZM5.25457 13.094C5.73572 13.023 6.27398 13.0821 6.86122 13.2852C7.06274 12.6974 7.34752 12.2369 7.69966 11.9014C8.15407 11.4685 8.6974 11.2671 9.24555 11.2574C10.3187 11.2384 11.3558 11.9466 11.8527 12.9282L11.8558 12.9343C12.5543 14.3665 12.3172 16.0378 11.8595 17.3398C11.6277 17.9993 11.3307 18.5896 11.0399 19.0435C10.8946 19.2703 10.7469 19.4692 10.6049 19.628C10.4714 19.7773 10.3128 19.9257 10.1409 20.0096C9.96897 20.0934 9.75443 20.127 9.55452 20.1403C9.34195 20.1544 9.0943 20.1483 8.82616 20.1232C8.28944 20.0729 7.64145 19.9435 6.97899 19.7202C5.67124 19.2793 4.20831 18.4371 3.5098 17.0049L3.50679 16.9988C3.03915 16.0029 3.11966 14.7496 3.79535 13.9157C4.14048 13.4897 4.63366 13.1855 5.25457 13.094Z" fill="#E0FE10"/>
</g>
<defs>
<clipPath id="clip0_38223_15768">
<rect width="26" height="26" fill="white" transform="translate(0 11.3975) rotate(-26)"/>
</clipPath>
</defs>
</svg>
