<svg width="89" height="32" viewBox="0 0 89 32" fill="none" xmlns="http://www.w3.org/2000/svg">
<path d="M10.752 21.488C12.096 24.144 11.712 26.64 9.856 28.048C7.424 29.904 4.448 29.968 2.4 27.76C1.984 27.312 1.44 26.512 1.152 25.968C0.32 24.336 0.352 23.376 1.28 22.96C1.664 22.768 1.824 22.768 2.336 22.896C2.976 23.088 3.04 23.184 3.712 24.368C3.968 24.88 4.352 25.392 4.48 25.584C4.928 26.064 5.696 26.416 6.4 26.416C7.872 26.416 8.512 24.688 8.16 23.408C7.744 21.872 6.912 20.624 5.024 18.608C3.136 16.56 2.368 15.312 2.144 13.776C1.856 11.6 2.848 9.52 4.608 8.656C5.312 8.304 5.6 8.24 6.4 8.24C7.744 8.24 8.48 8.528 9.344 9.36C9.792 9.84 10.24 10.512 10.56 11.152C10.944 11.984 11.328 13.264 10.176 13.68C9.632 13.872 8.896 13.712 8.512 13.072C7.392 11.184 6.272 10.608 5.568 11.568C4.832 12.528 5.152 14.48 7.456 16.944C8.768 18.352 10.176 20.304 10.752 21.488ZM23.8682 8.624C24.0602 8.752 24.2202 8.88 24.1882 8.944C24.1562 9.008 24.1882 9.136 24.3162 9.232C24.5082 9.392 24.5722 10.128 24.4122 10.384C24.1562 10.768 23.0042 11.248 21.8842 11.44C21.2122 11.568 20.5402 11.696 20.3802 11.728C20.0282 11.792 20.0922 11.088 19.6762 22.128C19.4842 26.192 19.4202 27.44 19.2602 28.08C19.0682 28.72 18.3322 29.296 17.6282 29.296C17.3402 29.296 17.0842 29.232 17.0842 29.136C17.0842 29.072 17.0202 29.008 16.9242 29.008C16.8282 29.008 16.6042 28.784 16.4442 28.496C16.1242 28.016 16.1242 27.92 16.1242 25.648C16.0922 23.408 16.3162 16.656 16.5082 13.776L16.6042 12.4C16.1882 12.496 13.0522 13.104 13.0522 12.72C13.0522 12.624 12.9562 12.464 12.8602 12.368C12.7002 12.24 12.7002 11.568 12.7962 10.768C12.8602 10.288 15.4522 9.52 19.3882 8.784C22.0762 8.304 23.3242 8.24 23.8682 8.624ZM30.117 29.168C28.837 29.488 27.013 29.744 26.149 28.464C25.861 27.984 25.829 27.792 25.733 25.456C25.573 21.104 25.797 12.272 26.085 10.8C26.341 9.488 26.629 8.88 27.077 8.624C27.525 8.336 27.781 8.304 29.701 8.272C32.549 8.208 33.189 8.272 33.669 8.784C34.085 9.168 34.309 9.904 34.149 10.32C34.117 10.416 33.861 10.672 33.573 10.896C33.093 11.248 32.997 11.248 31.205 11.344L29.317 11.408L29.285 14.448C29.285 14.704 29.157 17.808 29.221 17.904C29.317 18.032 29.573 18 30.373 17.808C32.133 17.36 33.189 17.424 33.573 18.192C33.765 18.544 33.957 19.6 33.381 20.08C32.805 20.56 31.781 20.784 30.277 21.296L29.189 21.648L29.125 22.8C29.093 23.408 29.125 24.4 29.189 25.04C29.253 25.936 29.317 26.128 29.509 26.128C29.637 26.128 30.437 25.936 31.333 25.68C32.197 25.392 33.157 25.2 33.445 25.2C33.957 25.2 34.693 25.488 34.533 25.68C34.469 25.712 34.533 25.808 34.661 25.872C34.821 25.968 34.885 26.192 34.885 26.512C34.885 26.96 34.821 27.088 34.373 27.44C33.765 27.952 31.909 28.688 30.117 29.168ZM36.812 16.56C36.748 14.8 36.684 12.496 36.684 11.408C36.684 11.056 36.812 9.072 36.268 8.944C36.076 8.752 36.044 8.56 36.076 8.176C36.14 7.536 36.172 7.44 36.812 7.056C37.644 6.512 38.956 6.288 40.332 6.384C43.02 6.576 44.588 7.568 45.676 9.744C46.316 11.056 46.508 11.856 46.508 13.424C46.508 15.632 45.964 17.648 44.844 19.376C43.98 20.816 43.436 21.36 41.9 22.512L40.46 23.568L40.524 24.272C40.748 26.992 40.876 29.744 40.716 30.192C40.46 31.056 39.18 31.568 38.316 31.152C38.156 31.088 38.028 30.96 38.028 30.928C38.028 30.864 37.9 30.64 37.74 30.416C37.388 29.968 37.292 28.752 37.1 23.472C37.004 21.392 36.908 18.288 36.812 16.56ZM41.676 10.448C41.324 10.064 40.236 9.52 40.14 9.712C40.108 9.744 40.14 10.8 40.204 12.112C40.236 13.392 40.3 15.472 40.3 16.688L40.332 18.896L40.844 18.352C41.164 18.064 41.58 17.456 41.804 17.04C42.86 14.864 42.796 11.728 41.676 10.448ZM60.862 19.92L60.35 22.224C60.062 23.504 59.742 24.976 59.646 25.552C59.358 27.12 59.198 27.504 58.654 27.952C57.918 28.528 57.342 28.528 56.702 27.888C56.286 27.44 56.222 27.312 56.254 26.768C56.254 26.416 56.286 25.904 56.35 25.616C56.414 25.296 56.67 24.048 56.958 22.768C57.214 21.52 57.47 20.4 57.502 20.272C57.566 20.112 57.47 20.048 56.99 19.984C56.126 19.856 55.774 19.664 55.486 19.12C55.294 18.768 55.262 18.544 55.358 18.16C55.518 17.52 56.094 17.168 57.31 17.104L58.206 17.04L58.558 15.408C58.782 14.48 58.974 13.648 59.006 13.52C59.102 13.264 59.038 13.264 58.11 13.328C57.086 13.424 56.094 13.232 56.094 12.944C56.094 12.848 55.998 12.72 55.902 12.624C55.646 12.432 55.646 11.792 55.838 11.376C56.062 10.96 56.99 10.64 58.366 10.448C59.102 10.384 59.71 10.256 59.742 10.224C59.774 10.16 59.902 9.648 60.03 9.04C60.254 8.08 61.15 4.752 61.662 3.184C61.758 2.832 61.982 2.32 62.142 2C62.686 0.943999 64.062 0.751999 64.606 1.712C64.99 2.32 64.894 2.992 63.902 6.8L63.134 9.904H63.614C63.87 9.904 64.414 9.872 64.83 9.84C65.502 9.744 65.534 9.744 65.662 9.2C66.27 6.8 67.294 3.568 67.71 2.672C67.902 2.256 68.19 1.968 68.51 1.776C68.926 1.552 69.054 1.552 69.502 1.712C70.366 1.968 70.622 2.96 70.238 4.432C70.174 4.752 69.886 5.904 69.63 7.024C69.342 8.144 69.118 9.136 69.086 9.264C69.022 9.424 69.246 9.424 70.622 9.392C71.934 9.36 72.318 9.392 72.702 9.584C72.958 9.712 73.182 9.904 73.182 10C73.182 10.096 73.278 10.192 73.406 10.256C73.598 10.32 73.662 11.216 73.502 11.472C73.374 11.664 72.638 12.144 72.35 12.24C72.222 12.304 71.454 12.4 70.718 12.432C69.982 12.464 69.118 12.528 68.798 12.56L68.254 12.624L67.966 14C67.806 14.768 67.646 15.632 67.614 15.952L67.486 16.528L68.702 16.496C69.502 16.464 70.046 16.528 70.238 16.624C70.878 16.976 71.166 18.224 70.686 18.608C70.046 19.088 69.31 19.344 68.126 19.408C67.006 19.504 66.846 19.536 66.782 19.792C66.558 20.848 65.79 25.04 65.662 25.936C65.47 27.376 65.374 27.568 64.798 28.016C64.254 28.432 63.454 28.56 63.038 28.336C62.878 28.24 62.622 27.984 62.462 27.696C62.174 27.312 62.142 27.088 62.206 26.544C62.27 25.936 63.07 21.36 63.294 20.176L63.39 19.728H62.814C62.494 19.728 61.918 19.792 61.534 19.824L60.862 19.92ZM62.462 13.04L62.046 14.832C61.79 15.824 61.63 16.688 61.63 16.784C61.63 16.912 61.886 16.944 62.718 16.88C63.326 16.816 63.87 16.752 63.902 16.688C63.966 16.624 64.158 15.984 64.286 15.248C64.446 14.48 64.638 13.68 64.702 13.424C64.862 12.848 64.798 12.752 64.35 12.816C64.158 12.848 63.646 12.912 63.23 12.944L62.462 13.04ZM86.4107 30.32C85.7707 30.448 85.0027 30.48 84.6827 30.352C83.9787 30.096 83.0827 29.552 82.5707 29.04C80.7467 27.376 80.6827 27.376 79.2107 28.912C78.6027 29.552 77.9307 30.128 77.7387 30.192C77.1627 30.416 76.4587 30.128 76.0747 29.52C75.7547 28.912 75.7227 28.272 76.0107 27.152C76.3627 25.744 76.9067 24.752 78.9867 21.52C82.3467 16.336 84.0747 8.912 82.3787 7.056C81.3547 5.968 79.4987 7.216 78.0267 9.968C77.6427 10.672 76.9707 11.312 76.4267 11.504C75.7867 11.76 74.8587 11.056 74.7947 10.288C74.6667 9.2 75.7547 7.088 77.1307 5.68C78.7947 3.984 80.7467 3.216 82.5067 3.536C84.8107 3.984 86.2827 5.872 86.6347 8.784C86.6987 9.584 86.4107 12.4 86.0907 13.776C85.4827 16.496 83.7227 20.4 81.7387 23.504C81.2267 24.304 81.2267 24.4 81.5787 24.4C82.2187 24.4 83.3707 24.976 84.1067 25.712C85.2587 26.832 85.6107 27.024 86.4107 27.152C87.1787 27.248 87.7867 27.536 87.7867 27.824C87.7867 27.92 87.8507 28.016 87.9147 28.048C88.1387 28.144 88.2347 29.2 88.0107 29.36C87.2107 30.032 86.9227 30.192 86.4107 30.32Z" fill="#6C737F"/>
</svg>
