<svg width="56" height="40" viewBox="0 0 56 40" fill="none" xmlns="http://www.w3.org/2000/svg">
<path d="M52.1242 9.18881C48.1542 12.1404 44.6283 15.5223 40.8407 18.6616C44.6379 22.4106 47.4167 26.751 50.0595 31.3082C50.2091 31.0429 50.3001 30.9456 50.3207 30.836C51.1729 26.2983 52.2443 21.8004 52.8369 17.2163C53.0653 15.4485 53.1922 13.6629 53.054 11.8785C52.9828 10.9599 52.7892 10.0558 52.1242 9.18881ZM5.52642 3.34196C5.38794 4.0366 5.30489 4.5103 5.19734 4.97817C4.57153 7.71031 4.11809 10.4721 3.76204 13.2504C3.27669 17.0358 3.00374 20.8391 2.92929 24.6512C2.88114 27.1299 2.84429 29.6161 3.07752 32.0889C3.1582 32.9459 3.17857 33.8708 3.93449 34.5998C8.66125 28.1406 13.9181 22.202 19.5258 16.4974C15.4639 13.0985 11.556 9.67898 7.65361 6.25276C6.78732 5.4925 6.0656 4.64446 5.52642 3.34196ZM50.4293 7.3893C49.0886 6.8751 47.8989 6.39278 46.5802 6.32865C45.4448 6.2736 44.3063 6.25323 43.1745 6.15337C38.2412 5.7169 33.3111 5.25146 28.3705 4.89347C21.892 4.42402 15.4183 3.89551 8.84972 3.51671C9.60422 4.51802 10.6009 5.1624 11.4684 5.94056C15.4004 9.46665 19.4148 12.8971 23.5125 16.2295C24.9314 17.3834 26.4038 18.4706 27.9624 19.4371C30.4856 21.0021 33.0152 21.0517 35.5454 19.4861C36.374 18.9733 37.1921 18.4331 37.9602 17.8344C42.1943 14.5384 46.0544 10.7979 50.4293 7.3893ZM6.32226 35.6343C8.65034 36.0816 10.884 36.1513 13.1084 36.2594C15.9494 36.3975 18.7975 36.394 21.6362 36.555C24.5605 36.7211 27.4878 36.7554 30.4114 36.78C35.2078 36.8191 40.0085 36.8302 44.7969 36.4048C45.9585 36.3018 47.029 35.9825 48.0394 35.4416C48.754 35.0583 48.7649 34.9925 48.4032 34.206C47.3294 31.8715 45.9438 29.7184 44.5415 27.5741C42.8512 24.9878 40.8058 22.6789 38.8387 20.2276C37.3644 21.3097 35.7733 22.1968 34.0496 22.836C31.998 23.5961 29.9961 23.5012 28.0229 22.5466C27.0312 22.0665 26.0775 21.5265 25.1887 20.8798C24.0402 20.0434 22.9132 19.1771 21.7772 18.3237C21.5046 18.1187 21.2823 17.9864 20.9606 18.328C16.6698 22.8821 12.4864 27.5291 8.58781 32.4272C7.80779 33.407 6.98942 34.3625 6.32226 35.6343ZM0.321931 28.4358C0.406671 20.5923 0.914174 12.7919 2.69029 5.11965C2.96555 3.93081 3.32919 2.76901 3.74331 1.62025C3.94843 1.0515 4.31507 0.815751 4.89431 0.697619C6.36396 0.397676 7.81478 0.714128 9.26737 0.783823C12.064 0.918362 14.8549 1.16331 17.6483 1.36609C21.2102 1.62453 24.7718 1.88862 28.3336 2.14552C33.3536 2.50769 38.369 2.91979 43.3737 3.45356C44.2602 3.54814 45.1404 3.71555 46.019 3.87579C46.6569 3.99258 47.2764 4.14214 47.9322 3.91263C48.1806 3.82632 48.5017 3.87502 48.7726 3.938C52.708 4.85314 55.4499 7.33665 55.5979 11.8026C55.704 14.9914 55.2965 18.1235 54.6935 21.2351C53.906 25.2962 53.1787 29.3693 52.1923 33.3921C51.6326 35.6751 50.3273 37.2092 48.1676 38.0769C45.5794 39.1159 42.8909 39.9317 40.1124 39.7003C36.2205 39.3759 32.337 39.6072 28.4523 39.5051C24.4733 39.4006 20.4927 39.322 16.5165 39.1472C13.0723 38.9958 9.62085 38.9146 6.1958 38.4322C5.27687 38.3029 4.41551 37.8351 3.45087 37.9776C3.3574 37.9919 3.22861 37.9003 3.14378 37.826C1.58976 36.4639 0.663896 34.8199 0.523748 32.6935C0.430652 31.2739 0.36739 29.857 0.321931 28.4358Z" fill="#102A56"/>
</svg>
