<svg width="104" height="74" viewBox="0 0 104 74" fill="none" xmlns="http://www.w3.org/2000/svg">
<path d="M89.7996 5.8457H9.22753C7.1718 5.8457 5.62962 8.10671 5.80054 10.8708H93.8483C93.6773 8.10671 91.8554 5.8457 89.7996 5.8457Z" fill="#E0FE10"/>
<path d="M6.14761 31.2397C6.05213 31.2397 5.97184 31.1615 5.96359 31.0576L4.99921 18.6249C4.99053 18.5159 5.06605 18.4205 5.16805 18.4112C5.26353 18.4033 5.35858 18.4829 5.36726 18.5923L6.33163 31.0251C6.34031 31.134 6.26479 31.2295 6.1628 31.2388C6.15759 31.2392 6.15282 31.2397 6.14761 31.2397Z" fill="#E0FE10"/>
<path d="M6.71751 38.6231C6.62203 38.6231 6.54174 38.5449 6.53349 38.4411L6.2414 34.6775C6.23272 34.5686 6.30824 34.4731 6.41023 34.4638C6.50789 34.4503 6.6012 34.5351 6.60944 34.6449L6.90154 38.4085C6.91022 38.5174 6.8347 38.6129 6.73271 38.6222C6.72793 38.6227 6.72272 38.6231 6.71751 38.6231Z" fill="#E0FE10"/>
<mask id="path-4-inside-1_38987_3853" fill="white">
<path d="M95.0369 68.1553H14.6198C12.4839 68.1553 10.6015 66.415 10.4239 64.2761L5.89507 9.74974C5.80822 8.70932 6.13577 7.72821 6.81619 6.9874C7.49349 6.25009 8.43603 5.84399 9.47009 5.84399H89.8877C92.0232 5.84399 93.9055 7.58465 94.0831 9.7236L98.6124 64.2496C98.6992 65.29 98.3717 66.2707 97.6912 67.0111C97.0135 67.7488 96.071 68.1553 95.0369 68.1553ZM9.47009 6.15569C8.52405 6.15569 7.66292 6.5259 7.0452 7.19844C6.42398 7.87411 6.12564 8.77096 6.20471 9.72399L10.7336 64.2499C10.8983 66.2317 12.6416 67.8436 14.6202 67.8436H95.0373C95.9838 67.8436 96.8449 67.4734 97.463 66.8009C98.0838 66.1248 98.3822 65.2283 98.3031 64.2757L93.7739 9.74974C93.6091 7.768 91.8662 6.15569 89.888 6.15569H9.47009Z"/>
</mask>
<path d="M95.0369 68.1553H14.6198C12.4839 68.1553 10.6015 66.415 10.4239 64.2761L5.89507 9.74974C5.80822 8.70932 6.13577 7.72821 6.81619 6.9874C7.49349 6.25009 8.43603 5.84399 9.47009 5.84399H89.8877C92.0232 5.84399 93.9055 7.58465 94.0831 9.7236L98.6124 64.2496C98.6992 65.29 98.3717 66.2707 97.6912 67.0111C97.0135 67.7488 96.071 68.1553 95.0369 68.1553ZM9.47009 6.15569C8.52405 6.15569 7.66292 6.5259 7.0452 7.19844C6.42398 7.87411 6.12564 8.77096 6.20471 9.72399L10.7336 64.2499C10.8983 66.2317 12.6416 67.8436 14.6202 67.8436H95.0373C95.9838 67.8436 96.8449 67.4734 97.463 66.8009C98.0838 66.1248 98.3822 65.2283 98.3031 64.2757L93.7739 9.74974C93.6091 7.768 91.8662 6.15569 89.888 6.15569H9.47009Z" fill="#E0FE10"/>
<path d="M10.4239 64.2761L10.8856 64.2377L10.8856 64.2377L10.4239 64.2761ZM5.89507 9.74974L6.35677 9.71139L6.35675 9.7112L5.89507 9.74974ZM6.81619 6.9874L6.47501 6.67398L6.47498 6.67401L6.81619 6.9874ZM94.0831 9.7236L93.6214 9.76193V9.76195L94.0831 9.7236ZM98.6124 64.2496L98.1507 64.2879L98.1507 64.2881L98.6124 64.2496ZM97.6912 67.0111L97.3501 66.6976L97.3501 66.6977L97.6912 67.0111ZM7.0452 7.19844L7.38625 7.51201L7.38641 7.51183L7.0452 7.19844ZM6.20471 9.72399L5.74301 9.7623L5.74301 9.76234L6.20471 9.72399ZM10.7336 64.2499L10.2719 64.2883L10.2719 64.2883L10.7336 64.2499ZM97.463 66.8009L97.8041 67.1143L97.8042 67.1142L97.463 66.8009ZM98.3031 64.2757L98.7648 64.2374V64.2373L98.3031 64.2757ZM93.7739 9.74974L94.2356 9.71139V9.71135L93.7739 9.74974ZM95.0369 67.692H14.6198V68.6186H95.0369V67.692ZM14.6198 67.692C12.7267 67.692 11.0434 66.1384 10.8856 64.2377L9.96223 64.3144C10.1596 66.6917 12.241 68.6186 14.6198 68.6186V67.692ZM10.8856 64.2377L6.35677 9.71139L5.43338 9.78808L9.96223 64.3144L10.8856 64.2377ZM6.35675 9.7112C6.28022 8.79444 6.56809 7.94239 7.15739 7.30078L6.47498 6.67401C5.70345 7.51402 5.33622 8.62421 5.43339 9.78828L6.35675 9.7112ZM7.15737 7.30081C7.74373 6.66251 8.5609 6.30728 9.47009 6.30728V5.38071C8.31116 5.38071 7.24325 5.83768 6.47501 6.67398L7.15737 7.30081ZM9.47009 6.30728H89.8877V5.38071H9.47009V6.30728ZM89.8877 6.30728C91.7802 6.30728 93.4636 7.86121 93.6214 9.76193L94.5448 9.68526C94.3474 7.30809 92.2661 5.38071 89.8877 5.38071V6.30728ZM93.6214 9.76195L98.1507 64.2879L99.0741 64.2112L94.5448 9.68525L93.6214 9.76195ZM98.1507 64.2881C98.2272 65.2048 97.9394 66.0564 97.3501 66.6976L98.0324 67.3246C98.804 66.4849 99.1712 65.3751 99.074 64.211L98.1507 64.2881ZM97.3501 66.6977C96.7632 67.3365 95.946 67.692 95.0369 67.692V68.6186C96.1961 68.6186 97.2639 68.1611 98.0324 67.3245L97.3501 66.6977ZM9.47009 5.6924C8.39969 5.6924 7.413 6.11313 6.704 6.88506L7.38641 7.51183C7.91284 6.93868 8.64842 6.61897 9.47009 6.61897V5.6924ZM6.70416 6.88488C5.99122 7.6603 5.65376 8.68645 5.74301 9.7623L6.66641 9.68569C6.59753 8.85547 6.85675 8.08792 7.38625 7.51201L6.70416 6.88488ZM5.74301 9.76234L10.2719 64.2883L11.1953 64.2116L6.6664 9.68564L5.74301 9.76234ZM10.2719 64.2883C10.4564 66.5083 12.3987 68.3069 14.6202 68.3069V67.3803C12.8846 67.3803 11.3402 65.9551 11.1953 64.2116L10.2719 64.2883ZM14.6202 68.3069H95.0373V67.3803H14.6202V68.3069ZM95.0373 68.3069C96.1081 68.3069 97.0948 67.8862 97.8041 67.1143L97.1219 66.4874C96.5951 67.0606 95.8594 67.3803 95.0373 67.3803V68.3069ZM97.8042 67.1142C98.5165 66.3386 98.8541 65.3129 98.7648 64.2374L97.8414 64.314C97.9103 65.1437 97.6511 65.911 97.1218 66.4875L97.8042 67.1142ZM98.7648 64.2373L94.2356 9.71139L93.3122 9.78809L97.8414 64.314L98.7648 64.2373ZM94.2356 9.71135C94.051 7.49156 92.1093 5.6924 89.888 5.6924V6.61897C91.6231 6.61897 93.1672 8.04443 93.3122 9.78812L94.2356 9.71135ZM89.888 5.6924H9.47009V6.61897H89.888V5.6924Z" fill="#393F4F" mask="url(#path-4-inside-1_38987_3853)"/>
<path d="M11.0919 8.26224C11.1331 8.7935 10.7651 9.2242 10.2699 9.2242C9.77467 9.2242 9.33979 8.7935 9.29856 8.26224C9.25733 7.73098 9.62538 7.30029 10.1206 7.30029C10.6158 7.30029 11.0507 7.73098 11.0919 8.26224Z" fill="white"/>
<path d="M14.7399 8.26224C14.7811 8.7935 14.4131 9.2242 13.9179 9.2242C13.4227 9.2242 12.9882 8.7935 12.947 8.26224C12.9058 7.73098 13.2738 7.30029 13.769 7.30029C14.2642 7.30029 14.6987 7.73098 14.7399 8.26224Z" fill="white"/>
<path d="M18.3805 8.26224C18.4218 8.7935 18.0537 9.2242 17.5585 9.2242C17.0633 9.2242 16.6284 8.7935 16.5876 8.26224C16.5464 7.73098 16.9144 7.30029 17.4096 7.30029C17.9049 7.30029 18.3393 7.73098 18.3805 8.26224Z" fill="white"/>
<path d="M91.8977 65.472H16.5162C14.6986 65.472 13.088 63.8768 12.9365 61.9268L9.41622 16.5349C9.26518 14.5849 10.6284 12.9897 12.4461 12.9897H87.8271C89.6447 12.9897 91.2553 14.5849 91.4068 16.5349L94.9271 61.9268C95.0785 63.8768 93.7153 65.472 91.8977 65.472Z" fill="#F0F0F0"/>
<path d="M74.0308 18.3818C76.3092 14.833 81.2155 15.0929 83.1919 18.7441L83.3735 19.1074L97.9155 50.6836C99.8234 54.8264 96.7198 59.5276 92.5298 59.0889L92.3296 59.0635L60.4399 54.5107C56.5548 53.9561 54.5008 49.3109 56.479 45.7461L56.6831 45.4053L74.0308 18.3818Z" fill="#E0FE10" stroke="#393F4F" stroke-width="0.294002"/>
<path d="M78.6685 18.4587L78.8745 18.4812C79.9112 18.6295 80.8265 19.2968 81.3569 20.2917L81.4585 20.4949L96.0366 52.1511C96.5146 53.189 96.49 54.3245 95.9897 55.2341L95.8833 55.4138C95.3212 56.2891 94.3956 56.75 93.3735 56.6746L93.1685 56.6521L61.1987 52.0876C60.162 51.9398 59.2458 51.2721 58.7153 50.2771L58.6147 50.073C58.1051 48.9658 58.1652 47.747 58.7661 46.8103L58.7671 46.8113L76.1597 19.7195C76.7218 18.8443 77.6465 18.3834 78.6685 18.4587Z" fill="white" stroke="#393F4F" stroke-width="0.294002"/>
<path d="M77.229 47.1362L77.7827 47.2153C78.8022 47.3609 79.6142 48.3093 79.6655 49.3911L79.6646 49.6089C79.6125 50.6973 78.7966 51.4657 77.8091 51.4312L77.6099 51.4136L77.0562 51.3345H77.0552C76.036 51.1887 75.2248 50.2403 75.1733 49.1587V48.9399C75.2259 47.8516 76.0427 47.0839 77.0298 47.1187L77.229 47.1362ZM77.3911 28.0591L79.4224 28.3501C80.5708 28.5141 81.4839 29.5813 81.5415 30.7983V31.0435L81.4048 33.8862C81.4003 33.9842 81.3895 34.0814 81.3735 34.1772L79.9282 42.7427C79.7445 43.831 78.8704 44.5485 77.8481 44.5034L77.6421 44.4849C76.5917 44.3349 75.7225 43.4217 75.5513 42.3062L75.5259 42.0806L74.9399 33.228L74.9351 33.0835C74.9346 33.0353 74.9357 32.9871 74.938 32.939L75.0737 30.0933C75.1326 28.8673 76.0526 28.0003 77.1665 28.0396L77.3911 28.0591Z" fill="#E0FE10" stroke="#393F4F" stroke-width="0.294002"/>
<path d="M33.0181 22.4685C33.6421 19.9296 36.5305 19.0776 38.2759 20.7976L38.4409 20.9724L52.1538 36.4822C53.8525 38.4037 52.9763 41.5269 50.6704 42.1912L50.4429 42.2478L31.9663 46.115C29.7345 46.5821 27.772 44.4643 28.2056 42.0779L28.2554 41.8464L33.0181 22.4685Z" fill="#E0FE10" stroke="#393F4F" stroke-width="0.294002"/>
<path d="M35.7319 21.3542C36.3077 21.2339 36.9122 21.4282 37.3706 21.8884L37.4604 21.9841L51.2075 37.5339C51.6465 38.0307 51.8328 38.6842 51.7212 39.3044L51.6948 39.4275C51.5443 40.04 51.1278 40.4818 50.5718 40.6404L50.4585 40.6687L31.9351 44.5457C31.3593 44.6661 30.7548 44.4726 30.2964 44.0125L30.2065 43.9167C29.7676 43.4202 29.5815 42.7664 29.6929 42.1462L29.7192 42.0222L34.4946 22.5955C34.6453 21.9828 35.062 21.541 35.6187 21.3826L35.7319 21.3542Z" fill="white" stroke="#393F4F" stroke-width="0.294002"/>
<path d="M40.2817 38.4006C40.833 38.2853 41.4256 38.6482 41.6401 39.2493L41.6782 39.3733C41.8393 40.0023 41.5319 40.5862 41.0142 40.7571L40.9077 40.7854L40.5864 40.8528C40.035 40.9681 39.4423 40.6046 39.228 40.0032L39.1909 39.8801C39.0292 39.2508 39.3367 38.6669 39.855 38.4963L39.9604 38.468H39.9614L40.2817 38.4006ZM37.8081 27.0178C38.4341 26.8869 39.1042 27.2987 39.3462 27.9778L39.3892 28.1165V28.1174L39.8228 29.8088L39.8569 29.9797L40.5913 35.2913C40.6822 35.9481 40.3355 36.5189 39.7935 36.6917L39.6831 36.7209C39.1103 36.8409 38.4915 36.5055 38.2065 35.9075L38.1538 35.7844L36.2427 30.7209L36.1909 30.5579L35.7563 28.8635C35.5742 28.1534 35.9214 27.4902 36.5103 27.2961L36.6313 27.2639L37.8081 27.0178Z" fill="#E0FE10" stroke="#393F4F" stroke-width="0.294002"/>
</svg>
