<svg width="24" height="24" viewBox="0 0 24 24" fill="none" xmlns="http://www.w3.org/2000/svg">
  <path d="M12 22C17.5228 22 22 17.5228 22 12C22 6.47715 17.5228 2 12 2C6.47715 2 2 6.47715 2 12C2 17.5228 6.47715 22 12 22Z" stroke="#0D0E12" stroke-width="2" stroke-linecap="round" stroke-linejoin="round"/>
  <path d="M15 8H11C9.89543 8 9 8.89543 9 10C9 11.1046 9.89543 12 11 12H13C14.1046 12 15 12.8954 15 14C15 15.1046 14.1046 16 13 16H9" stroke="#0D0E12" stroke-width="2" stroke-linecap="round" stroke-linejoin="round"/>
  <path d="M12 6V8M12 16V18" stroke="#0D0E12" stroke-width="2" stroke-linecap="round" stroke-linejoin="round"/>
</svg> 