<svg width="64" height="64" viewBox="0 0 64 64" fill="none" xmlns="http://www.w3.org/2000/svg">
<path d="M36.8901 42.0024H39.125C54.9021 42.0024 60.5 33.6851 60.5 26.5649C60.5 22.4585 57.5004 19.0623 53.5816 18.3925C54.5387 16.3167 55.2441 14.3217 55.6099 12.5334C56.0374 10.4529 55.5054 8.31063 54.154 6.65288C52.7789 4.96663 50.7411 4 48.568 4H15.4296C13.2565 4 11.2211 4.96663 9.84363 6.65288C8.49225 8.30825 7.96025 10.4529 8.38775 12.5334C8.75588 14.3194 9.4565 16.3167 10.4136 18.3925C6.49725 19.0623 3.5 22.4585 3.5 26.5625C3.5 33.6828 9.09787 42 24.875 42H27.0909C27.1597 42.5011 27.25 42.9975 27.25 43.5129V51.5C27.25 55.8368 23.602 56.231 22.5 56.25H15.375V61H48.625V56.25H41.5C40.379 56.231 36.731 55.8368 36.731 51.5V43.5129C36.731 42.9975 36.8189 42.5035 36.8901 42.0024ZM51.0784 23.0024H52.1875C54.1516 23.0024 55.75 24.6007 55.75 26.5649C55.75 31.7329 51.019 37.2524 38.7616 37.2524C39.1986 36.6729 39.6974 36.1528 40.2579 35.7063C44.3381 32.4454 48.1951 27.7476 51.0784 23.0024ZM8.25 26.5649C8.25 24.6007 9.84837 23.0024 11.8125 23.0024H12.9145C15.793 27.7453 19.6429 32.443 23.7231 35.7063C24.2812 36.1528 24.7824 36.6753 25.2194 37.2524C12.962 37.2524 8.25 31.7329 8.25 26.5649ZM33.2445 13.5024L34.793 18.2642H39.8019L40.5144 20.4445L36.4626 23.3895L38.0111 28.1537L36.1562 29.5004L32.1069 26.5649L28.0456 29.5028L26.1908 28.1561L27.7393 23.3919L23.6875 20.4469L24.4 18.2666H29.4041L30.9526 13.5166L33.2445 13.5024Z" fill="#E0FE10"/>
</svg>
