<svg width="64" height="64" viewBox="0 0 64 64" fill="none" xmlns="http://www.w3.org/2000/svg">
<path d="M32.3669 54.0649C32.7152 57.3207 35.3336 59.9392 38.5877 60.3017C41.0047 60.571 43.4863 60.8023 46.0166 60.8023C48.5465 60.8023 51.0283 60.571 53.4452 60.3017C56.6992 59.9392 59.3177 57.3207 59.666 54.0649C59.9234 51.6617 60.1405 49.1941 60.1405 46.6784C60.1405 44.1631 59.9234 41.6956 59.666 39.2923C59.3177 36.0367 56.6992 33.4182 53.4452 33.0555C51.0283 32.786 48.5465 32.5547 46.0166 32.5547C43.4863 32.5547 41.0047 32.786 38.5877 33.0555C35.3336 33.4182 32.7152 36.0367 32.3669 39.2923C32.1097 41.6956 31.8926 44.1631 31.8926 46.6784C31.8926 49.1941 32.1097 51.6617 32.3669 54.0649Z" stroke="#6C737F" stroke-width="5" stroke-linecap="round" stroke-linejoin="round"/>
<path d="M40.9316 49.6094V51.8059" stroke="#6C737F" stroke-width="5" stroke-linecap="round"/>
<path d="M50.8867 40.5547V42.7517" stroke="#6C737F" stroke-width="5" stroke-linecap="round"/>
<path d="M43.0852 23.2358C41.574 17.5958 39.5095 12.2724 37.6191 7.15191C36.856 5.08494 34.746 3.82111 32.5603 4.09987C28.1525 4.66204 23.5372 5.16005 18.9852 6.37975C14.4331 7.59945 10.1871 9.47589 6.08875 11.1929C4.05655 12.0443 2.86107 14.1938 3.23371 16.3654C4.15685 21.7451 5.03065 27.3876 6.54192 33.0276C8.05314 38.6676 10.1176 43.991 12.008 49.1117C12.7711 51.1785 14.8813 52.4425 17.0669 52.1636C19.2266 51.888 21.436 51.6283 23.6635 51.2909" stroke="#6C737F" stroke-width="5" stroke-linecap="round" stroke-linejoin="round"/>
<path d="M54.1624 23.4904C54.78 20.3179 55.2874 17.1817 55.8113 14.1299C56.1839 11.9583 54.9884 9.80876 52.956 8.95738C50.8284 8.06599 48.6611 7.13164 46.4316 6.26855" stroke="#6C737F" stroke-width="5" stroke-linecap="round" stroke-linejoin="round"/>
<path d="M31.8679 26.1818L22.5361 19.415L17.8379 29.9411L24.3176 34.7306" stroke="#6C737F" stroke-width="5" stroke-linecap="round" stroke-linejoin="round"/>
</svg>
