<svg width="64" height="64" viewBox="0 0 64 64" fill="none" xmlns="http://www.w3.org/2000/svg">
<path d="M34.2508 42.0001L37.1308 39.1226C37.6943 38.559 38.011 37.7946 38.011 36.9976C38.011 36.2006 37.6943 35.4362 37.1308 34.8726C36.5672 34.309 35.8028 33.9924 35.0058 33.9924C34.2087 33.9924 33.4443 34.309 32.8808 34.8726L30.0008 37.7501L26.2508 34.0001L29.1308 31.1226C29.6943 30.559 30.011 29.7946 30.011 28.9976C30.011 28.2006 29.6943 27.4362 29.1308 26.8726C28.5672 26.309 27.8028 25.9924 27.0058 25.9924C26.2087 25.9924 25.4443 26.309 24.8808 26.8726L22.0008 29.7501L18.1233 25.8776C17.5597 25.314 16.7953 24.9974 15.9983 24.9974C15.2012 24.9974 14.4368 25.314 13.8733 25.8776C13.3097 26.4412 12.993 27.2056 12.993 28.0026C12.993 28.7996 13.3097 29.564 13.8733 30.1276L14.7508 31.0001L9.63575 36.1226C7.94805 37.8104 6.99992 40.0995 6.99992 42.4863C6.99992 44.8732 7.94805 47.1623 9.63575 48.8501L10.2733 49.4851L3.87825 55.8776C3.31467 56.4412 2.99805 57.2056 2.99805 58.0026C2.99805 58.7996 3.31467 59.564 3.87825 60.1276C4.44184 60.6912 5.20622 61.0078 6.00325 61.0078C6.80028 61.0078 7.56466 60.6912 8.12825 60.1276L14.5208 53.7326L15.1558 54.3701C16.8455 56.0541 19.1339 56.9997 21.5195 56.9997C23.9051 56.9997 26.1935 56.0541 27.8833 54.3701L33.0008 49.2501L33.8783 50.1301C34.4418 50.6937 35.2062 51.0103 36.0033 51.0103C36.8003 51.0103 37.5647 50.6937 38.1283 50.1301C38.6918 49.5665 39.0085 48.8021 39.0085 48.0051C39.0085 47.2081 38.6918 46.4437 38.1283 45.8801L34.2508 42.0001ZM23.6358 50.1226C23.357 50.4023 23.0259 50.6242 22.6612 50.7756C22.2966 50.927 21.9056 51.005 21.5108 51.005C21.1159 51.005 20.725 50.927 20.3603 50.7756C19.9956 50.6242 19.6645 50.4023 19.3858 50.1226L13.8783 44.6076C13.5986 44.3289 13.3767 43.9977 13.2252 43.6331C13.0738 43.2684 12.9959 42.8774 12.9959 42.4826C12.9959 42.0878 13.0738 41.6968 13.2252 41.3321C13.3767 40.9675 13.5986 40.6363 13.8783 40.3576L19.0008 35.2501L28.7508 45.0001L23.6358 50.1226ZM60.1357 3.8726C59.857 3.59292 59.5259 3.37101 59.1612 3.21959C58.7966 3.06818 58.4056 2.99023 58.0107 2.99023C57.6159 2.99023 57.2249 3.06818 56.8603 3.21959C56.4956 3.37101 56.1645 3.59292 55.8857 3.8726L49.4858 10.2726L48.8507 9.6351C47.1613 7.95046 44.8728 7.00444 42.487 7.00444C40.1012 7.00444 37.8127 7.95046 36.1233 9.6351L31.0008 14.7501L30.1233 13.8701C29.5597 13.3065 28.7953 12.9899 27.9983 12.9899C27.2012 12.9899 26.4368 13.3065 25.8733 13.8701C25.3097 14.4337 24.993 15.1981 24.993 15.9951C24.993 16.7921 25.3097 17.5565 25.8733 18.1201L45.8733 38.1201C46.4368 38.6837 47.2012 39.0003 47.9983 39.0003C48.7953 39.0003 49.5597 38.6837 50.1233 38.1201C50.6868 37.5565 51.0035 36.7921 51.0035 35.9951C51.0035 35.1981 50.6868 34.4337 50.1233 33.8701L49.2508 33.0001L54.3733 27.8776C56.061 26.1898 57.0091 23.9007 57.0091 21.5138C57.0091 19.127 56.061 16.8379 54.3733 15.1501L53.7358 14.5151L60.1308 8.1226C60.4092 7.84349 60.6299 7.51223 60.7802 7.14777C60.9305 6.78331 61.0076 6.39279 61.0069 5.99855C61.0062 5.6043 60.9278 5.21406 60.7762 4.85013C60.6245 4.4862 60.4027 4.15573 60.1233 3.8776L60.1357 3.8726ZM50.1357 23.6226L45.0008 28.7501L35.2508 19.0001L40.3733 13.8776C40.652 13.5979 40.9831 13.376 41.3478 13.2246C41.7125 13.0732 42.1034 12.9952 42.4983 12.9952C42.8931 12.9952 43.2841 13.0732 43.6487 13.2246C44.0134 13.376 44.3445 13.5979 44.6233 13.8776L50.1383 19.3926C50.4179 19.6713 50.6398 20.0025 50.7913 20.3671C50.9427 20.7318 51.0206 21.1228 51.0206 21.5176C51.0206 21.9124 50.9427 22.3034 50.7913 22.6681C50.6398 23.0327 50.4179 23.3639 50.1383 23.6426L50.1357 23.6226Z" fill="#6C737F"/>
</svg>
